HIERARCHY
ROOT Hips
{
	OFFSET 0.00 0.00 0.00
	CHANNELS 6 Xposition Yposition Zposition Yrotation Xrotation Zrotation
	JOINT LHipJoint
	{
		OFFSET	0.0000	0.0000	0.0000
		CHANNELS 3 Yrotation Xrotation Zrotation
		JOINT LeftUpLeg
		{
			OFFSET	1.0138	-0.0809	-0.0827
			CHANNELS 3 Yrotation Xrotation Zrotation
			JOINT LeftLeg
			{
				OFFSET	0.4110	-3.9095	0.3245
				CHANNELS 3 Yrotation Xrotation Zrotation
				JOINT LeftFoot
				{
					OFFSET	0.3810	-4.0555	-0.1470
					CHANNELS 3 Yrotation Xrotation Zrotation
					JOINT LeftToeBase
					{
						OFFSET	0.1396	-0.4462	1.3079
						CHANNELS 3 Yrotation Xrotation Zrotation
						End Site
						{
							OFFSET 0.0161 -0.0248 0.1809
						}
					}
				}
			}
		}
	}
	JOINT LowerBack
	{
		OFFSET	0.0000	0.7977	-0.3873
		CHANNELS 3 Yrotation Xrotation Zrotation
		JOINT Spine
		{
			OFFSET	0.0000	1.4131	0.1715
			CHANNELS 3 Yrotation Xrotation Zrotation
			JOINT Spine1
			{
				OFFSET	0.0000	1.4392	-0.1032
				CHANNELS 3 Yrotation Xrotation Zrotation
				JOINT LeftShoulder
				{
					OFFSET	0.2274	1.0382	0.4032
					CHANNELS 3 Yrotation Xrotation Zrotation
					JOINT LeftArm
					{
						OFFSET	1.4730	-0.2267	-0.0231
						CHANNELS 3 Yrotation Xrotation Zrotation
						JOINT LeftForeArm
						{
							OFFSET	1.6131	-1.8059	0.0081
							CHANNELS 3 Yrotation Xrotation Zrotation
							JOINT LeftHand
							{
								OFFSET	1.2197	-1.2423	1.6317
								CHANNELS 3 Yrotation Xrotation Zrotation
								JOINT LThumb
								{
									OFFSET	0.0109	-0.0753	0.4387
									CHANNELS 3 Yrotation Xrotation Zrotation
									End Site
									{
										OFFSET -0.2090 -0.0868 0.2097
									}
								}
								JOINT LeftFingerBase
								{
									OFFSET	0.1071	-0.1567	0.2607
									CHANNELS 3 Yrotation Xrotation Zrotation
									JOINT LeftHandFinger1
									{
										OFFSET	0.1706	-0.2492	0.6830
										CHANNELS 3 Yrotation Xrotation Zrotation
										End Site
										{
											OFFSET 0.0335 -0.1507 0.2071
										}
									}
								}
							}
						}
					}
				}
				JOINT Neck
				{
					OFFSET	0.0000	1.7498	0.2381
					CHANNELS 3 Yrotation Xrotation Zrotation
					JOINT Neck1
					{
						OFFSET	0.0000	0.5043	0.1959
						CHANNELS 3 Yrotation Xrotation Zrotation
						JOINT Head
						{
							OFFSET	0.0000	0.5044	0.1959
							CHANNELS 3 Yrotation Xrotation Zrotation
							End Site
							{
								OFFSET 0.0000 1.4798 -0.0693
							}
						}
					}
				}
				JOINT RightShoulder
				{
					OFFSET	-0.2274	1.0382	0.4032
					CHANNELS 3 Yrotation Xrotation Zrotation
					JOINT RightArm
					{
						OFFSET	-1.4730	-0.2267	-0.0231
						CHANNELS 3 Yrotation Xrotation Zrotation
						JOINT RightForeArm
						{
							OFFSET	-1.6131	-1.8059	0.0081
							CHANNELS 3 Yrotation Xrotation Zrotation
							JOINT RightHand
							{
								OFFSET	-1.2197	-1.2423	1.6317
								CHANNELS 3 Yrotation Xrotation Zrotation
								JOINT RThumb
								{
									OFFSET	-0.0109	-0.0753	0.4387
									CHANNELS 3 Yrotation Xrotation Zrotation
									End Site
									{
										OFFSET 0.2090 -0.0868 0.2097
									}
								}
								JOINT RightFingerBase
								{
									OFFSET	-0.1071	-0.1567	0.2607
									CHANNELS 3 Yrotation Xrotation Zrotation
									JOINT RightHandFinger1
									{
										OFFSET	-0.1706	-0.2492	0.6830
										CHANNELS 3 Yrotation Xrotation Zrotation
										End Site
										{
											OFFSET -0.0335 -0.1507 0.2071
										}
									}
								}
							}
						}
					}
				}
			}
		}
	}
	JOINT RHipJoint
	{
		OFFSET	0.0000	0.0000	0.0000
		CHANNELS 3 Yrotation Xrotation Zrotation
		JOINT RightUpLeg
		{
			OFFSET	-1.0138	-0.0809	-0.0827
			CHANNELS 3 Yrotation Xrotation Zrotation
			JOINT RightLeg
			{
				OFFSET	-0.4110	-3.9095	0.3245
				CHANNELS 3 Yrotation Xrotation Zrotation
				JOINT RightFoot
				{
					OFFSET	-0.3810	-4.0555	-0.1470
					CHANNELS 3 Yrotation Xrotation Zrotation
					JOINT RightToeBase
					{
						OFFSET	-0.1396	-0.4462	1.3079
						CHANNELS 3 Yrotation Xrotation Zrotation
						End Site
						{
							OFFSET -0.0161 -0.0248 0.1809
						}
					}
				}
			}
		}
	}
}
MOTION
Frames: 8
Frame Time: 0.0333333
-0.7909 8.6717 0.6847 -0.1869 1.7827 -0.3871 0.0000 -0.0000 0.0000 -6.5577 -1.5570 -0.7638 0.5844 10.2321 -0.1086 13.5556 -10.4683 -1.0114 -0.0268 -0.4065 0.0637 0.0000 -0.0000 0.0000 0.3147 0.0065 0.3817 0.6346 0.0102 0.8576 -0.6278 2.4121 5.3466 -39.7862 9.2411 -35.5693 13.3885 11.5403 -1.6014 18.6876 -6.5490 1.4892 28.0342 -8.1099 16.8996 -0.8515 24.7235 -15.6755 -15.4628 1.4827 -8.9637 0.9569 4.4482 -0.8215 0.9569 4.4483 -0.8215 -4.5911 -5.9551 2.7689 5.1258 4.1861 -6.0701 38.1538 9.7216 32.4339 -17.4297 6.2196 2.1817 -15.8670 6.4292 -7.2219 -38.7937 -2.9674 2.6989 6.4566 17.5346 21.8294 6.9449 -4.8813 2.4687 0.0000 -0.0000 0.0000 -14.0803 -6.8403 3.3843 -1.0063 11.8316 0.1582 -1.4023 -6.7345 -2.6459 -0.1125 -0.5090 0.3226 
-0.7905 8.6660 0.6915 -0.1429 1.6669 -0.4372 0.0000 -0.0000 0.0000 -6.6035 -1.7000 -0.7174 0.6520 10.8302 -0.1161 13.5141 -10.7957 -1.0794 -0.0354 -0.4015 0.0116 0.0000 -0.0000 0.0000 0.3160 -0.0119 0.3753 0.6370 -0.0267 0.8343 -0.6554 2.4099 5.3855 -39.7381 9.2673 -35.3361 13.1990 11.3397 -1.6378 18.6407 -6.3708 1.4933 28.0563 -8.1974 16.8931 -0.8135 24.7006 -15.6452 -15.4321 1.4610 -8.9394 0.9570 4.4373 -0.8170 0.9570 4.4373 -0.8170 -4.5949 -5.9941 2.7943 5.1479 4.1823 -6.0591 38.3598 9.8186 32.5653 -17.2603 6.0260 2.1934 -15.8944 6.6495 -7.1012 -38.7747 -3.0236 2.7655 6.4336 17.4404 21.7619 6.9654 -4.8620 2.4846 0.0000 -0.0000 0.0000 -14.2526 -6.8831 3.3850 -1.0450 12.2560 0.1662 -1.2512 -6.9832 -2.6473 -0.1051 -0.5170 0.3260 
-0.7908 8.6593 0.6996 -0.0921 1.5230 -0.5028 0.0000 -0.0000 0.0000 -6.6357 -1.8508 -0.6509 0.7255 11.5154 -0.1250 13.4472 -11.1708 -1.1592 -0.0432 -0.3985 -0.0443 0.0000 -0.0000 0.0000 0.3204 -0.0356 0.3776 0.6454 -0.0739 0.8259 -0.6796 2.4079 5.4516 -39.8128 9.3210 -35.1554 12.9593 11.0853 -1.6830 19.1616 -6.2375 0.9677 27.7472 -9.1829 16.2893 -1.0658 24.9755 -15.9150 -15.4305 1.4598 -8.9382 0.9571 4.4291 -0.8148 0.9571 4.4291 -0.8148 -4.5926 -6.0214 2.7970 5.1623 4.1821 -6.0858 38.5721 9.9302 32.6534 -17.0819 5.8219 2.2051 -15.9478 6.8389 -6.8781 -38.5729 -3.0636 3.0756 6.5270 17.3627 21.7727 6.9150 -4.9093 2.4462 0.0000 -0.0000 0.0000 -14.4602 -6.9155 3.3954 -1.0893 12.7385 0.1740 -1.0687 -7.2676 -2.6556 -0.0966 -0.5238 0.3275 
-0.7917 8.6517 0.7090 -0.0447 1.3566 -0.5714 0.0000 -0.0000 0.0000 -6.6466 -1.9912 -0.5777 0.8054 12.2447 -0.1340 13.3558 -11.5765 -1.2461 -0.0500 -0.3991 -0.0969 0.0000 -0.0000 0.0000 0.3228 -0.0591 0.3867 0.6501 -0.1209 0.8311 -0.6954 2.4060 5.5354 -39.9041 9.3796 -35.0501 12.7302 10.8412 -1.7255 19.5374 -6.6962 0.4557 26.5778 -10.9125 14.3135 -1.5992 25.2894 -16.3621 -15.4418 1.4679 -8.9475 0.9578 4.4166 -0.8135 0.9578 4.4167 -0.8135 -4.5855 -6.0685 2.7871 5.2036 4.1814 -6.1582 38.7210 10.0022 32.6325 -16.9581 5.6802 2.2129 -16.0027 6.7021 -6.6321 -38.1337 -3.0570 3.6888 6.7108 17.2572 21.8196 6.7729 -5.0430 2.3378 0.0000 -0.0000 0.0000 -14.6719 -6.9452 3.4026 -1.1353 13.2796 0.1836 -0.8766 -7.5903 -2.6695 -0.0883 -0.5294 0.3287 
-0.7934 8.6431 0.7193 -0.0051 1.1668 -0.6285 0.0000 -0.0000 0.0000 -6.6364 -2.1146 -0.5118 0.8837 13.0052 -0.1459 13.2524 -12.0077 -1.3386 -0.0553 -0.4167 -0.1542 0.0000 -0.0000 0.0000 0.3186 -0.0629 0.3914 0.6418 -0.1284 0.8310 -0.7066 2.4046 5.6410 -39.5139 9.2970 -34.8351 12.6277 10.7307 -1.7446 18.3435 -8.3190 1.4104 24.4886 -12.9119 10.8773 -3.0155 25.9636 -17.4886 -15.4380 1.4652 -8.9446 0.9570 4.3905 -0.8082 0.9570 4.3905 -0.8082 -4.6025 -6.2208 2.8251 5.3141 4.1773 -6.3105 38.6648 9.9345 32.4045 -16.9364 5.6548 2.2142 -15.9420 6.0753 -6.5598 -37.5340 -3.0293 4.5241 6.8488 17.0685 21.7868 6.5411 -5.2621 2.1612 0.0000 -0.0000 0.0000 -14.8422 -6.9909 3.3902 -1.1942 13.9098 0.1935 -0.7046 -7.9681 -2.6843 -0.0798 -0.5404 0.3342 
-0.7959 8.6325 0.7295 0.0108 0.9264 -0.6630 0.0000 -0.0000 0.0000 -6.5997 -2.2316 -0.4645 0.9659 13.8584 -0.1592 13.1499 -12.4880 -1.4479 -0.0622 -0.5790 -0.2651 0.0000 -0.0000 0.0000 0.3136 -0.0253 0.3665 0.6320 -0.0529 0.7772 -0.7275 2.4038 5.8665 -37.8220 8.7575 -34.0692 12.7725 10.8822 -1.7186 14.5310 -10.9246 5.0176 22.2721 -14.8429 7.1124 -5.6610 27.4217 -19.7392 -15.4591 1.4802 -8.9617 0.9516 4.3495 -0.7908 0.9516 4.3496 -0.7908 -4.7079 -6.5565 3.0033 5.5075 4.1777 -6.6601 38.1899 9.5610 31.8419 -17.0503 5.7841 2.2069 -15.6399 5.1470 -6.7964 -36.9605 -3.0627 5.3899 6.8832 16.9076 21.7088 6.2934 -5.4978 1.9727 0.0000 -0.0000 0.0000 -14.9546 -7.0813 3.3421 -1.2749 14.7101 0.2045 -0.5452 -8.4306 -2.7052 -0.0708 -0.5599 0.3443 
-0.7998 8.6195 0.7384 -0.0149 0.5996 -0.6555 0.0000 -0.0000 0.0000 -6.5136 -2.3180 -0.4554 1.0572 14.8040 -0.1694 13.0470 -13.0071 -1.5787 -0.0762 -0.8674 -0.4606 0.0000 -0.0000 0.0000 0.3275 0.0434 0.2875 0.6602 0.0847 0.6237 -0.7789 2.4012 6.4604 -34.2215 7.3080 -32.3613 13.2304 11.3658 -1.6319 9.0781 -13.4904 10.2723 20.9119 -16.4717 4.4200 -8.5904 29.2266 -22.3908 -15.5437 1.5404 -9.0294 0.9384 4.3122 -0.7597 0.9384 4.3122 -0.7597 -4.9657 -7.0113 3.3507 5.7321 4.2096 -7.4605 37.0605 8.6365 30.7824 -17.4442 6.2332 2.1796 -15.1514 4.1982 -7.1920 -36.5765 -3.2478 6.1214 6.8750 16.9636 21.7410 6.1071 -5.6760 1.8312 0.0000 -0.0000 0.0000 -15.0499 -7.2247 3.2355 -1.3781 15.7245 0.2166 -0.3378 -8.9809 -2.7482 -0.0601 -0.5879 0.3581 
-0.8055 8.6064 0.7463 -0.0758 0.2157 -0.5913 0.0000 -0.0000 0.0000 -6.3648 -2.3039 -0.4938 1.1403 15.6422 -0.1743 12.9348 -13.4666 -1.7120 -0.0944 -1.2647 -0.7282 0.0000 -0.0000 0.0000 0.3766 0.0778 0.1577 0.7578 0.1539 0.3792 -0.8518 2.3949 7.7989 -28.8423 4.4708 -29.8080 14.0402 12.2207 -1.4683 5.0596 -15.6093 14.4309 20.5457 -17.4680 3.2526 -10.3448 30.5060 -24.0964 -15.5586 1.5510 -9.0415 0.9172 4.3106 -0.7272 0.9172 4.3106 -0.7272 -5.3699 -7.3249 3.7597 5.8837 4.3118 -9.0333 35.1318 6.9316 29.0449 -18.4442 7.3740 2.0971 -14.7380 3.1562 -7.4664 -36.4965 -3.6274 6.5640 6.7678 17.2441 21.8555 5.9764 -5.8015 1.7322 0.0000 -0.0000 0.0000 -15.1952 -7.3679 3.0719 -1.4896 16.7885 0.2261 -0.0324 -9.5359 -2.8263 -0.0460 -0.6243 0.3766 
